<?xml version="1.0" encoding="utf-8"?>
<!-- Generator: Adobe Illustrator 22.0.1, SVG Export Plug-In . SVG Version: 6.00 Build 0)  -->
<!DOCTYPE svg PUBLIC "-//W3C//DTD SVG 1.1//EN" "http://www.w3.org/Graphics/SVG/1.1/DTD/svg11.dtd">
<svg version="1.1" id="Layer_1" xmlns="http://www.w3.org/2000/svg" xmlns:xlink="http://www.w3.org/1999/xlink" x="0px" y="0px"
	 viewBox="0 0 150 150" style="enable-background:new 0 0 150 150;" xml:space="preserve">
<style type="text/css">
	.st0{display:none;}
	.st1{display:inline;fill:#bebebe;}
	.st2{fill:#bebebe;}
</style>
<g class="st0">
	<path class="st1" d="M79.4,51.5V61c0,0.6-0.5,1.2-1.2,1.2S77,61.7,77,61v-8.4H64v49.5h4.4c0.5,0,1.1,0.5,1.1,1.1s-0.5,1.1-1.1,1.1
		H47.7c-0.6,0-1.2-0.5-1.2-1.1s0.5-1.1,1.2-1.1H52V52.6H39.1V61c0,0.6-0.5,1.2-1.2,1.2c-0.6,0-1.2-0.5-1.2-1.2v-9.5
		c0-0.6,0.5-1.1,1.2-1.1h40.3C78.9,50.4,79.4,50.9,79.4,51.5z M61.6,52.6h-7.4v49.5h7.4V52.6z"/>
</g>
<path class="st2" d="M53.3,3.3l0.3,8c0,0.1-0.1,0.2-0.2,0.2L52.1,12c-0.1,0-0.2,0-0.2-0.1l-3.3-4.3l0.1,5.5c0,0.1,0,0.2-0.1,0.2
	l-1.3,0.5c-0.1,0-0.2,0-0.3-0.1l-4.8-6.4C42,7.2,42,7.1,42.1,7l1.4-0.5c0.1,0,0.2,0,0.2,0.1l3.3,4.7l-0.2-5.8c0-0.1,0-0.1,0-0.1
	s0,0,0.1-0.1l1.3-0.5h0.1c0,0,0.1,0,0.1,0.1l3.5,4.6l-0.4-5.7c0-0.1,0.1-0.2,0.1-0.2L53,3.1C53.2,3.2,53.3,3.2,53.3,3.3z"/>
<path class="st2" d="M72.9,7.1v1.2c0,0.1-0.1,0.2-0.2,0.2l-4.3,0.1c-0.1,0-0.2-0.1-0.2-0.2l-0.1-7.7c0-0.1,0.1-0.2,0.2-0.2l4.3-0.1
	c0.1,0,0.2,0.1,0.2,0.2v1.2c0,0.1-0.1,0.2-0.2,0.2h-2.7v1.6h2.5c0.1,0,0.2,0.1,0.2,0.2V5c0,0.1-0.1,0.2-0.2,0.2h-2.5v1.7h2.7
	C72.9,6.9,72.9,7,72.9,7.1z"/>
<path class="st2" d="M105.9,16.9l-1.3-0.7c-0.1,0-0.1-0.1-0.1-0.2l0.2-1.3l-2.5-1.3l-0.9,0.9c-0.1,0.1-0.2,0.1-0.2,0l-1.3-0.7
	c-0.1-0.1-0.1-0.2,0-0.2l5.7-5.4c0.1-0.1,0.2-0.1,0.2,0l1.2,0.6c0.1,0,0.1,0.1,0.1,0.2l-0.9,8C106.1,16.9,106,16.9,105.9,16.9z
	 M104.9,13.3l0.4-3l-2.1,2.1L104.9,13.3z"/>
<path class="st2" d="M120.6,27.9l-1.1-1c-0.1-0.1-0.1-0.1-0.1-0.2l0.5-3l-0.3-0.3l-1.6,1.8c-0.1,0.1-0.2,0.1-0.2,0l-1-1
	c-0.1-0.1-0.1-0.2,0-0.2l5.1-5.5c0.1-0.1,0.2-0.1,0.2,0l1.8,1.6c1.4,1.3,1.4,2.8,0.4,3.9c-0.8,0.8-1.8,1.1-2.8,0.7l-0.5,3.2
	C120.8,28,120.7,28,120.6,27.9z M120.7,22.3l0.6,0.5c0.5,0.4,1.1,0.7,1.7,0.1s0.2-1.2-0.2-1.7l-0.6-0.5L120.7,22.3z"/>
<path class="st2" d="M132.3,41.3l-1.1,0.6c-0.1,0.1-0.2,0-0.2-0.1l-2.2-3.8c-0.1-0.1,0-0.2,0.1-0.2l6.8-4c0.1-0.1,0.2,0,0.2,0.1
	l2.2,3.8c0.1,0.1,0,0.2-0.1,0.2l-1.1,0.6c-0.1,0.1-0.2,0-0.2-0.1l-1.4-2.4l-1.4,0.8l1.3,2.2c0.1,0.1,0,0.2-0.1,0.2L134,40
	c-0.1,0.1-0.2,0-0.2-0.1l-1.3-2.2l-1.5,0.9l1.4,2.4C132.4,41.1,132.4,41.2,132.3,41.3z"/>
<path class="st2" d="M148,72.9l-1.2,0.1c-0.1,0-0.2-0.1-0.2-0.2l-0.1-1.7l-6.3,0.4c-0.1,0-0.2-0.1-0.2-0.2l-0.1-1.4
	c0-0.1,0.1-0.2,0.2-0.2l6.3-0.4l-0.1-1.7c0-0.1,0.1-0.2,0.2-0.2l1.2-0.1c0.1,0,0.2,0.1,0.2,0.2l0.4,5.2
	C148.2,72.8,148.1,72.9,148,72.9z"/>
<path class="st2" d="M139.6,90.9l-1.2-0.2c-0.1,0-0.2-0.1-0.1-0.2l0.8-4.4c0-0.1,0.1-0.2,0.2-0.1l7.8,1.4c0.1,0,0.2,0.1,0.1,0.2
	l-0.8,4.4c0,0.1-0.1,0.2-0.2,0.1l-1.2-0.2c-0.1,0-0.2-0.1-0.1-0.2l0.5-2.7l-1.6-0.3l-0.4,2.6c0,0.1-0.1,0.2-0.2,0.1l-1.2-0.2
	c-0.1,0-0.2-0.1-0.1-0.2l0.4-2.6l-1.8-0.3l-0.5,2.8C139.8,90.9,139.7,91,139.6,90.9z"/>
<path class="st2" d="M130.9,108.8l0.7-1.3c0-0.1,0.1-0.1,0.2-0.1l1.3,0.2l1.3-2.6l-0.9-0.9c-0.1-0.1-0.1-0.2,0-0.2l0.7-1.3
	c0.1-0.1,0.2-0.1,0.2,0l5.7,6.1c0.1,0.1,0.1,0.2,0,0.2l-0.6,1.2c0,0.1-0.1,0.1-0.2,0.1L131,109C130.9,109,130.8,108.9,130.9,108.8z
	 M134.6,107.8l3,0.5l-2.2-2.2L134.6,107.8z"/>
<path class="st2" d="M123.2,130.8l-5.4-5.4c-0.1-0.1-0.1-0.2,0-0.2l1-1c0.1-0.1,0.2-0.1,0.2,0l3.2,3.2l-0.3-0.5l-1.8-3.9
	c0-0.1,0-0.2,0-0.2l0.9-0.9c0.1-0.1,0.2-0.1,0.3-0.1l3.9,1.8l0.5,0.3l-3.2-3.2c-0.1-0.1-0.1-0.2,0-0.2l1-1c0.1-0.1,0.2-0.1,0.2,0
	l5.4,5.4c0.1,0.1,0.1,0.2,0,0.2l-1.1,1.1c-0.1,0.1-0.1,0.1-0.2,0.1l-5.8-2.5l2.5,5.8c0,0.1,0,0.2-0.1,0.2l-1.1,1.1
	C123.3,130.9,123.2,130.9,123.2,130.8z"/>
<path class="st2" d="M102.2,140.5l-0.4-0.7c-1.1-1.9-0.8-4.1,1.2-5.3c2.1-1.3,4.7-0.6,5.9,1.5c1.2,2,0.5,4.6-1.5,5.8
	c-1,0.6-2.1,0.7-3.1,0.5c-0.1,0-0.1-0.1-0.1-0.2l0.3-1.3c0-0.1,0.1-0.2,0.2-0.1c0.6,0.1,1.2,0,1.9-0.3c1.2-0.7,1.5-2.1,0.8-3.3
	s-2.1-1.7-3.4-0.9c-1.1,0.7-1.3,1.7-0.9,2.4l1.7-1c0.1-0.1,0.2,0,0.2,0.1l0.6,1c0.1,0.1,0,0.2-0.1,0.2l-3.1,1.8
	C102.3,140.6,102.3,140.5,102.2,140.5z"/>
<path class="st2" d="M83.8,142.6l-0.2-1.2c0-0.1,0-0.2,0.1-0.2l4.3-0.8c0.1,0,0.2,0,0.2,0.1l1.4,7.3c0,0.1,0,0.2-0.1,0.2l-4.3,0.8
	c-0.1,0-0.2,0-0.2-0.1l-0.2-1.2c0-0.1,0-0.2,0.1-0.2l2.7-0.5l-0.3-1.5l-2.5,0.5c-0.1,0-0.2,0-0.2-0.1l-0.2-1.2c0-0.1,0-0.2,0.1-0.2
	l2.5-0.5l-0.3-1.7l-2.7,0.5C83.9,142.8,83.8,142.7,83.8,142.6z"/>
<path class="st2" d="M47.3,136.7l1.6,0.6c0.1,0,0.1,0.1,0.2,0.2l1,3.6l0.8-0.4l0.8-2.2c0-0.1,0.1-0.1,0.2-0.1l1.3,0.5
	c0.1,0,0.1,0.1,0.1,0.2l-2.6,7.1c0,0.1-0.1,0.1-0.2,0.1l-1.3-0.5c-0.1,0-0.1-0.1-0.1-0.2l1-2.8l-3.3,2c-0.1,0-0.1,0-0.2,0l-1.7-0.6
	c-0.1-0.1-0.1-0.2,0-0.2l3.7-2.1l-1.4-5.1C47.1,136.8,47.1,136.7,47.3,136.7z"/>
<path class="st2" d="M65.8,142.9l0.1-1.2c0-0.1,0.1-0.2,0.2-0.2l4.4,0.3c0.1,0,0.2,0.1,0.2,0.2l-0.5,7.6c0,0.1-0.1,0.2-0.2,0.2
	l-4.4-0.3c-0.1,0-0.2-0.1-0.2-0.2l0.1-1.2c0-0.1,0.1-0.2,0.2-0.2l2.8,0.2l0.1-1.5l-2.6-0.2c-0.1,0-0.2-0.1-0.2-0.2l0.1-1.2
	c0-0.1,0.1-0.2,0.2-0.2l2.6,0.2l0.1-1.7l-2.8-0.2C65.8,143.1,65.8,143,65.8,142.9z"/>
</svg>
